<?xml version="1.0" encoding="utf-8"?>
<!-- Generator: Adobe Illustrator 25.2.3, SVG Export Plug-In . SVG Version: 6.00 Build 0)  -->
<svg version="1.1" id="Layer_1" xmlns="http://www.w3.org/2000/svg" xmlns:xlink="http://www.w3.org/1999/xlink" x="0px" y="0px"
	 viewBox="0 0 283.46 283.46" style="enable-background:new 0 0 283.46 283.46;" xml:space="preserve">
<style type="text/css">
	.st0{clip-path:url(#SVGID_2_);fill:#51385E;}
	.st1{clip-path:url(#SVGID_2_);fill:#E0C4AB;}
	.st2{clip-path:url(#SVGID_2_);fill:#6EBBBF;}
	.st3{clip-path:url(#SVGID_2_);}
</style>
<g>
	<g>
		<defs>
			<rect id="SVGID_1_" x="49.15" y="69.55" width="192.08" height="131.06"/>
		</defs>
		<clipPath id="SVGID_2_">
			<use xlink:href="#SVGID_1_"  style="overflow:visible;"/>
		</clipPath>
		<path class="st0" d="M132.11,93.2c1.17-0.68,2.25-1.32,3.35-1.94c2.85-1.64,4.86-2.81,7.71-4.46c0.34-0.2,0.58-0.19,0.92,0
			c3.25,1.9,6.51,3.8,9.78,5.68c0.33,0.19,0.46,0.4,0.46,0.79c-0.01,3.75-0.01,7.51,0,11.27c0,0.41-0.13,0.62-0.48,0.82
			c-3.78,2.17-6.71,3.89-10.49,6.07c-0.15,0.08-0.3,0.15-0.51,0.26c-0.02-0.23-0.04-0.38-0.04-0.54c0-3.72-0.01-7.45,0.01-11.17
			c0-0.43-0.15-0.66-0.51-0.86c-3.26-1.87-6.5-3.75-9.75-5.64C132.43,93.41,132.32,93.33,132.11,93.2"/>
		<path class="st1" d="M130.93,76.57c1.19-0.68,2.3-1.32,3.41-1.94c2.9-1.64,5.82-3.28,8.71-4.94c0.34-0.2,0.6-0.19,0.93,0
			c3.32,1.9,21.21,12.48,24.54,14.36c0.34,0.19,0.46,0.4,0.46,0.79c-0.01,3.76-0.01,7.51,0,11.27c0,0.41-0.14,0.62-0.49,0.82
			c-3.85,2.17-7.7,4.36-11.55,6.54c-0.15,0.08-0.31,0.15-0.52,0.26c-0.02-0.23-0.04-0.38-0.04-0.54c0-3.72-0.01-7.45,0.01-11.17
			c0-0.43-0.15-0.66-0.52-0.86c-3.32-1.87-21.2-12.44-24.51-14.32C131.25,76.78,131.14,76.7,130.93,76.57"/>
		<path class="st2" d="M168.98,101.44v-0.54c-0.24,0.13-0.39,0.2-0.54,0.29c-8.59,4.96-17.18,9.91-25.77,14.88
			c-0.3,0.17-0.52,0.18-0.82,0c-4.47-2.6-8.96-5.18-13.45-7.76c-0.35-0.2-0.48-0.41-0.48-0.82c0.01-5.15,0.01-10.29,0-15.44
			c0-0.19,0.03-0.33,0.09-0.46l-12.42-7.11c-0.02,0.07-0.05,0.13-0.05,0.23c0.01,10.02,0.01,20.04,0,30.06
			c0,0.31,0.1,0.48,0.37,0.64c8.61,4.96,17.22,9.92,25.82,14.9c0.4,0.23,0.68,0.23,1.07,0c8.57-4.96,17.15-9.91,25.73-14.85
			c0.33-0.19,0.46-0.39,0.46-0.78C168.98,110.27,168.98,105.85,168.98,101.44"/>
		<path class="st3" d="M63.49,166.48V150.2c0-0.44,0.24-0.68,0.68-0.68h2.51c0.44,0,0.68,0.24,0.68,0.68v16.22
			c0,2.71,1.43,3.63,4.41,3.63h6.72c0.44,0,0.68,0.24,0.68,0.68v2.04c0,0.44-0.24,0.68-0.68,0.68H71.5
			C65.56,173.44,63.49,170.82,63.49,166.48"/>
		<path class="st3" d="M90.5,169.94h2.82c2.99,0,4.44-0.92,4.44-3.53v-10.04c0-2.58-1.46-3.53-4.44-3.53H90.5
			c-2.99,0-4.41,0.95-4.41,3.53v10.04C86.09,169.03,87.51,169.94,90.5,169.94 M82.22,166.48V156.3c0-4.34,2.07-6.95,8.01-6.95h3.36
			c5.94,0,8.04,2.61,8.04,6.95v10.18c0,4.34-2.1,6.96-8.04,6.96h-3.36C84.29,173.44,82.22,170.82,82.22,166.48"/>
		<path class="st3" d="M105.7,166.48V156.3c0-4.34,2.07-6.95,7.67-6.95h3.36c4.95,0,7.33,2.48,7.33,6.68c0,0.44-0.24,0.68-0.68,0.68
			h-2.48c-0.41,0-0.71-0.24-0.71-0.68c0-2.31-1.63-3.19-3.73-3.19h-2.82c-2.65,0-4.07,0.95-4.07,3.53v10.04
			c0,2.61,1.43,3.53,4.07,3.53h2.82c2.1,0,3.73-0.71,3.73-2.78v-2.75h-4.85c-0.34,0-0.51-0.17-0.51-0.51v-2.38
			c0-0.34,0.17-0.51,0.51-0.51h8.07c0.41,0,0.65,0.24,0.65,0.68v5.46c0,3.97-2.38,6.28-7.33,6.28h-3.36
			C107.77,173.44,105.7,170.82,105.7,166.48"/>
		<path class="st3" d="M128.6,172.59V150.2c0-0.44,0.24-0.68,0.68-0.68h2.51c0.44,0,0.68,0.24,0.68,0.68v22.39
			c0,0.44-0.24,0.68-0.68,0.68h-2.51C128.84,173.27,128.6,173.03,128.6,172.59"/>
		<path class="st3" d="M137.83,172.59V156.3c0-4.34,2.07-6.96,7.67-6.96h3.36c5.6,0,7.7,2.61,7.7,6.96v16.29
			c0,0.44-0.24,0.68-0.68,0.68h-2.51c-0.44,0-0.68-0.24-0.68-0.68v-16.22c0-2.58-1.46-3.53-4.11-3.53h-2.82
			c-2.65,0-4.07,0.95-4.07,3.53v16.22c0,0.44-0.24,0.68-0.68,0.68h-2.51C138.06,173.27,137.83,173.03,137.83,172.59"/>
		<path class="st3" d="M161.1,166.31v-9.84c0-4.34,2.07-6.95,8.01-6.95h7.67c0.44,0,0.68,0.24,0.68,0.68v2.04
			c0,0.44-0.24,0.68-0.68,0.68h-7.4c-2.99,0-4.41,0.95-4.41,3.63v3.05h11.13c0.44,0,0.68,0.24,0.68,0.68v2.04
			c0,0.44-0.24,0.68-0.68,0.68h-11.13v3.26c0,2.72,1.42,3.63,4.41,3.63h7.4c0.44,0,0.68,0.24,0.68,0.68v2.04
			c0,0.44-0.24,0.68-0.68,0.68h-7.67C163.17,173.27,161.1,170.65,161.1,166.31"/>
		<path class="st3" d="M179.93,172.49l1.73-5.6c1.02-2.71,1.63-4.31,2.85-5.12v-0.27c-1.22-0.85-1.83-2.38-2.78-5.8l-1.77-5.4
			c-0.14-0.47,0.07-0.78,0.54-0.78h2.37c0.38,0,0.65,0.2,0.75,0.58l1.76,5.6c1.22,4.31,2.04,4.34,3.29,4.34h1.26
			c1.36,0,2.21-0.03,3.46-4.34l1.73-5.6c0.1-0.37,0.37-0.58,0.75-0.58h2.44c0.47,0,0.71,0.31,0.54,0.78l-1.8,5.4
			c-0.98,3.43-1.59,4.99-2.78,5.8v0.27c1.19,0.81,1.83,2.41,2.75,5.12l1.83,5.6c0.14,0.47-0.07,0.78-0.54,0.78h-2.44
			c-0.37,0-0.65-0.2-0.75-0.58l-1.76-5.8c-1.19-3.66-2.07-3.7-3.43-3.7h-1.32c-1.26,0-2.1,0.04-3.33,3.7l-1.73,5.8
			c-0.1,0.41-0.37,0.58-0.75,0.58h-2.31C180.03,173.27,179.79,172.96,179.93,172.49"/>
		<path class="st3" d="M215.89,164.99l-1.46-8.62c-0.64-3.83-1.46-3.87-3.09-3.87h-0.78c-1.56,0-2.34,0.04-2.99,3.87l-1.46,8.62
			H215.89z M201,172.59l2.75-16.29c1.02-6.14,2.07-6.96,6.55-6.96h1.32c4.55,0,5.63,0.81,6.65,6.96l2.75,16.29
			c0.1,0.65-0.24,0.68-0.68,0.68h-2.51c-0.44,0-0.58-0.07-0.68-0.68l-0.75-4.51h-10.79l-0.75,4.51c-0.1,0.68-0.24,0.68-0.68,0.68
			h-2.51C201.24,173.27,200.9,173.27,201,172.59"/>
	</g>
</g>
<g>
	<path d="M61.95,192.5v-5.71c0-0.16,0.08-0.24,0.24-0.24h0.88c0.15,0,0.24,0.08,0.24,0.24v5.69c0,0.95,0.5,1.27,1.55,1.27h2.36
		c0.15,0,0.24,0.08,0.24,0.24v0.71c0,0.16-0.08,0.24-0.24,0.24h-2.45C62.68,194.94,61.95,194.03,61.95,192.5z"/>
	<path d="M68.52,192.5v-3.57c0-1.52,0.73-2.44,2.81-2.44h1.18c2.08,0,2.82,0.92,2.82,2.44v3.57c0,1.52-0.74,2.44-2.82,2.44h-1.18
		C69.25,194.94,68.52,194.03,68.52,192.5z M71.43,193.72h0.99c1.05,0,1.56-0.32,1.56-1.24v-3.52c0-0.91-0.51-1.24-1.56-1.24h-0.99
		c-1.05,0-1.55,0.33-1.55,1.24v3.52C69.88,193.4,70.38,193.72,71.43,193.72z"/>
	<path d="M76.76,192.5v-3.57c0-1.52,0.73-2.44,2.69-2.44h1.18c1.74,0,2.57,0.87,2.57,2.34c0,0.15-0.08,0.24-0.24,0.24h-0.87
		c-0.14,0-0.25-0.08-0.25-0.24c0-0.81-0.57-1.12-1.31-1.12h-0.99c-0.93,0-1.43,0.33-1.43,1.24v3.52c0,0.92,0.5,1.24,1.43,1.24h0.99
		c0.74,0,1.31-0.25,1.31-0.98v-0.96h-1.7c-0.12,0-0.18-0.06-0.18-0.18v-0.83c0-0.12,0.06-0.18,0.18-0.18h2.83
		c0.14,0,0.23,0.08,0.23,0.24v1.92c0,1.39-0.83,2.2-2.57,2.2h-1.18C77.49,194.94,76.76,194.03,76.76,192.5z"/>
	<path d="M84.8,194.65v-7.85c0-0.16,0.08-0.24,0.24-0.24h0.88c0.15,0,0.24,0.08,0.24,0.24v7.85c0,0.16-0.08,0.24-0.24,0.24h-0.88
		C84.88,194.88,84.8,194.8,84.8,194.65z"/>
	<path d="M87.75,192.78c0-0.16,0.08-0.24,0.24-0.24h0.85c0.15,0,0.27,0.08,0.27,0.24c0,0.81,0.57,1.06,1.54,1.06h0.77
		c0.95,0,1.52-0.27,1.52-1.3c0-0.8-0.25-0.9-1.59-1.07l-0.64-0.08c-2.38-0.31-2.83-1.2-2.83-2.46c0-1.49,0.94-2.43,2.71-2.43h0.87
		c1.74,0,2.65,0.77,2.65,2.19c0,0.16-0.08,0.24-0.24,0.24h-0.84c-0.15,0-0.27-0.08-0.27-0.24c0-0.79-0.51-1.08-1.42-1.08h-0.65
		c-0.92,0-1.45,0.31-1.45,1.32c0,0.77,0.21,1.06,1.48,1.23l0.64,0.08c2.08,0.27,2.95,0.52,2.95,2.31c0,1.64-0.88,2.4-2.7,2.4h-1.14
		C88.63,194.94,87.75,194.19,87.75,192.78z"/>
	<path d="M97.76,194.65v-6.9h-2.27c-0.15,0-0.24-0.08-0.24-0.24v-0.71c0-0.16,0.08-0.24,0.24-0.24h5.9c0.15,0,0.24,0.08,0.24,0.24
		v0.71c0,0.15-0.08,0.24-0.24,0.24h-2.27v6.9c0,0.16-0.08,0.24-0.24,0.24H98C97.84,194.88,97.76,194.8,97.76,194.65z"/>
	<path d="M102.99,194.65v-7.85c0-0.16,0.08-0.24,0.24-0.24h0.88c0.15,0,0.24,0.08,0.24,0.24v7.85c0,0.16-0.08,0.24-0.24,0.24h-0.88
		C103.07,194.88,102.99,194.8,102.99,194.65z"/>
	<path d="M106.06,192.5v-3.57c0-1.52,0.73-2.44,2.69-2.44h1.18c1.74,0,2.57,0.87,2.57,2.34c0,0.15-0.08,0.24-0.24,0.24h-0.87
		c-0.14,0-0.25-0.08-0.25-0.24c0-0.81-0.57-1.12-1.31-1.12h-0.99c-0.93,0-1.43,0.33-1.43,1.24v3.52c0,0.92,0.5,1.24,1.43,1.24h0.99
		c0.74,0,1.31-0.29,1.31-1.1c0-0.15,0.11-0.24,0.25-0.24h0.87c0.15,0,0.24,0.08,0.24,0.24c0,1.46-0.83,2.32-2.57,2.32h-1.18
		C106.78,194.94,106.06,194.03,106.06,192.5z"/>
	<path d="M113.59,192.78c0-0.16,0.08-0.24,0.24-0.24h0.85c0.15,0,0.27,0.08,0.27,0.24c0,0.81,0.57,1.06,1.54,1.06h0.77
		c0.95,0,1.52-0.27,1.52-1.3c0-0.8-0.25-0.9-1.59-1.07l-0.64-0.08c-2.38-0.31-2.83-1.2-2.83-2.46c0-1.49,0.94-2.43,2.71-2.43h0.87
		c1.74,0,2.65,0.77,2.65,2.19c0,0.16-0.08,0.24-0.24,0.24h-0.84c-0.15,0-0.27-0.08-0.27-0.24c0-0.79-0.51-1.08-1.42-1.08h-0.65
		c-0.92,0-1.45,0.31-1.45,1.32c0,0.77,0.21,1.06,1.48,1.23l0.64,0.08c2.08,0.27,2.95,0.52,2.95,2.31c0,1.64-0.88,2.4-2.7,2.4h-1.14
		C114.47,194.94,113.59,194.19,113.59,192.78z"/>
	<path d="M124.59,194.65v-7.85c0-0.16,0.08-0.24,0.24-0.24h0.88c0.01,0,0.01,0,0.01,0h6.99c2.08,0,2.81,0.92,2.81,2.44v1
		c0,1.02-0.35,1.77-1.21,2.15l1.1,2.46c0.07,0.17-0.01,0.27-0.19,0.27h-0.92c-0.13,0-0.24-0.06-0.29-0.18l-1.01-2.29
		c-0.12,0.01-0.24,0.01-0.36,0.01h-6.69v2.21c0,0.16-0.08,0.24-0.24,0.24h-0.88C124.67,194.88,124.59,194.8,124.59,194.65z
		 M132.61,191.36c1.05,0,1.55-0.32,1.55-1.24v-1.23c0-0.91-0.5-1.24-1.55-1.24h-6.67v3.7H132.61z"/>
	<path d="M136.59,192.44v-3.45c0-1.52,0.73-2.44,2.81-2.44h6.71c0.15,0,0.24,0.08,0.24,0.24v0.71c0,0.15-0.08,0.24-0.24,0.24h-6.62
		c-1.05,0-1.55,0.33-1.55,1.27v1.07h7.93c0.15,0,0.24,0.08,0.24,0.24v0.71c0,0.16-0.08,0.24-0.24,0.24h-7.93v1.14
		c0,0.95,0.5,1.27,1.55,1.27h6.62c0.15,0,0.24,0.08,0.24,0.24v0.71c0,0.16-0.08,0.24-0.24,0.24h-6.71
		C137.32,194.88,136.59,193.97,136.59,192.44z"/>
	<path d="M147.85,194.65v-7.85c0-0.16,0.08-0.24,0.24-0.24h8.19c1.89,0,2.7,0.96,2.7,2.56v3.09c0,1.67-0.77,2.68-2.58,2.68h-8.31
		C147.93,194.88,147.85,194.8,147.85,194.65z M156.3,193.66c0.84,0,1.32-0.38,1.32-1.48v-3.05c0-0.99-0.51-1.36-1.44-1.36h-6.97
		v5.88H156.3z"/>
	<path d="M160.41,192.44v-3.45c0-1.52,0.73-2.44,2.81-2.44h6.71c0.16,0,0.24,0.08,0.24,0.24v0.71c0,0.15-0.08,0.24-0.24,0.24h-6.62
		c-1.05,0-1.55,0.33-1.55,1.27v1.07h7.93c0.16,0,0.24,0.08,0.24,0.24v0.71c0,0.16-0.08,0.24-0.24,0.24h-7.93v1.14
		c0,0.95,0.5,1.27,1.55,1.27h6.62c0.16,0,0.24,0.08,0.24,0.24v0.71c0,0.16-0.08,0.24-0.24,0.24h-6.71
		C161.14,194.88,160.41,193.97,160.41,192.44z"/>
	<path d="M171.55,194.65v-5.65c0-1.52,0.73-2.44,2.81-2.44h6.51c0.15,0,0.24,0.08,0.24,0.24v0.71c0,0.15-0.08,0.24-0.24,0.24h-6.42
		c-1.05,0-1.55,0.33-1.55,1.27v1.31h7.72c0.15,0,0.24,0.08,0.24,0.24v0.71c0,0.16-0.08,0.24-0.24,0.24h-7.72v3.13
		c0,0.16-0.08,0.24-0.24,0.24h-0.88C171.64,194.88,171.55,194.8,171.55,194.65z"/>
	<path d="M182.61,194.65v-7.85c0-0.16,0.08-0.24,0.24-0.24h0.88c0.16,0,0.24,0.08,0.24,0.24v7.85c0,0.16-0.08,0.24-0.24,0.24h-0.88
		C182.7,194.88,182.61,194.8,182.61,194.65z"/>
	<path d="M185.85,194.65v-5.71c0-1.52,0.73-2.44,2.69-2.44h5.78c1.96,0,2.7,0.92,2.7,2.44v5.71c0,0.16-0.08,0.24-0.24,0.24h-0.88
		c-0.15,0-0.24-0.08-0.24-0.24v-5.69c0-0.91-0.51-1.24-1.44-1.24h-5.59c-0.93,0-1.43,0.33-1.43,1.24v5.69
		c0,0.16-0.08,0.24-0.24,0.24h-0.88C185.93,194.88,185.85,194.8,185.85,194.65z"/>
	<path d="M198.62,192.44v-3.45c0-1.52,0.73-2.44,2.81-2.44h6.71c0.16,0,0.24,0.08,0.24,0.24v0.71c0,0.15-0.08,0.24-0.24,0.24h-6.62
		c-1.05,0-1.55,0.33-1.55,1.27v1.07h7.93c0.16,0,0.24,0.08,0.24,0.24v0.71c0,0.16-0.08,0.24-0.24,0.24h-7.93v1.14
		c0,0.95,0.5,1.27,1.55,1.27h6.62c0.16,0,0.24,0.08,0.24,0.24v0.71c0,0.16-0.08,0.24-0.24,0.24h-6.71
		C199.35,194.88,198.62,193.97,198.62,192.44z"/>
	<path d="M209.88,194.65v-7.85c0-0.16,0.08-0.24,0.24-0.24h8.19c1.89,0,2.7,0.96,2.7,2.56v3.09c0,1.67-0.77,2.68-2.58,2.68h-8.31
		C209.97,194.88,209.88,194.8,209.88,194.65z M218.33,193.66c0.84,0,1.32-0.38,1.32-1.48v-3.05c0-0.99-0.51-1.36-1.44-1.36h-6.97
		v5.88H218.33z"/>
</g>
</svg>
